{
	"asset":{
		"generator":"Khronos glTF Blender I/O v3.6.27",
		"version":"2.0"
	},
	"scene":0,
	"scenes":[
		{
			"name":"Scene",
			"nodes":[
				0,
				1,
				2,
				3
			]
		}
	],
	"nodes":[
		{
			"mesh":0,
			"name":"Cylinder.001",
			"rotation":[
				0.70710688829422,
				0,
				0,
				0.7071066498756409
			]
		},
		{
			"mesh":1,
			"name":"Curve",
			"rotation":[
				0.70710688829422,
				0,
				0,
				0.7071066498756409
			],
			"scale":[
				80.52308654785156,
				58.256507873535156,
				80.5230941772461
			],
			"translation":[
				-0.019798876717686653,
				-0.03546559438109398,
				0.08544835448265076
			]
		},
		{
			"name":"Empty",
			"translation":[
				-0.20607750117778778,
				15.618734359741211,
				0.1252729296684265
			]
		},
		{
			"name":"Empty.001",
			"translation":[
				-0.20607750117778778,
				15.618734359741211,
				0.1252729296684265
			]
		}
	],
	"materials":[
		{
			"doubleSided":true,
			"name":"Material Purple.001",
			"pbrMetallicRoughness":{
				"baseColorFactor":[
					0.0524798259139061,
					0,
					0.527114987373352,
					1
				],
				"metallicFactor":0,
				"roughnessFactor":0.5
			}
		},
		{
			"doubleSided":true,
			"name":"Material White.001",
			"pbrMetallicRoughness":{
				"baseColorFactor":[
					0.800000011920929,
					0.800000011920929,
					0.800000011920929,
					1
				],
				"metallicFactor":0,
				"roughnessFactor":0.5
			}
		}
	],
	"meshes":[
		{
			"name":"Cylinder.003",
			"primitives":[
				{
					"attributes":{
						"POSITION":0,
						"NORMAL":1
					},
					"indices":2,
					"material":0
				}
			]
		},
		{
			"name":"Curve.001",
			"primitives":[
				{
					"attributes":{
						"POSITION":3,
						"NORMAL":4
					},
					"indices":5,
					"material":1
				}
			]
		}
	],
	"accessors":[
		{
			"bufferView":0,
			"componentType":5126,
			"count":21455,
			"max":[
				0.31334948539733887,
				0.06432228535413742,
				0.31334948539733887
			],
			"min":[
				-0.31334948539733887,
				-0.06432229280471802,
				-0.31334948539733887
			],
			"type":"VEC3"
		},
		{
			"bufferView":1,
			"componentType":5126,
			"count":21455,
			"type":"VEC3"
		},
		{
			"bufferView":2,
			"componentType":5123,
			"count":116736,
			"type":"SCALAR"
		},
		{
			"bufferView":3,
			"componentType":5126,
			"count":2503,
			"max":[
				0.00249559641815722,
				0,
				0.0017180792056024075
			],
			"min":[
				-0.002020051470026374,
				-0.0012364829890429974,
				-0.0027023055590689182
			],
			"type":"VEC3"
		},
		{
			"bufferView":4,
			"componentType":5126,
			"count":2503,
			"type":"VEC3"
		},
		{
			"bufferView":5,
			"componentType":5123,
			"count":3876,
			"type":"SCALAR"
		}
	],
	"bufferViews":[
		{
			"buffer":0,
			"byteLength":257460,
			"byteOffset":0,
			"target":34962
		},
		{
			"buffer":0,
			"byteLength":257460,
			"byteOffset":257460,
			"target":34962
		},
		{
			"buffer":0,
			"byteLength":233472,
			"byteOffset":514920,
			"target":34963
		},
		{
			"buffer":0,
			"byteLength":30036,
			"byteOffset":748392,
			"target":34962
		},
		{
			"buffer":0,
			"byteLength":30036,
			"byteOffset":778428,
			"target":34962
		},
		{
			"buffer":0,
			"byteLength":7752,
			"byteOffset":808464,
			"target":34963
		}
	],
	"buffers":[
		{
			"byteLength":816216,
			"uri":"data:application/octet-stream;base64,"
		}
	]
}
