{
	"asset":{
		"generator":"Khronos glTF Blender I/O v3.6.27",
		"version":"2.0"
	},
	"extensionsUsed":[
		"KHR_materials_transmission",
		"KHR_materials_ior"
	],
	"scene":0,
	"scenes":[
		{
			"name":"Scene",
			"nodes":[
				0,
				1,
				2
			]
		}
	],
	"nodes":[
		{
			"mesh":0,
			"name":"Cylinder",
			"rotation":[
				0.70710688829422,
				0,
				0,
				0.7071066498756409
			],
			"scale":[
				0.9003743529319763,
				0.608011782169342,
				0.9003744125366211
			],
			"translation":[
				0,
				0,
				0.01730874925851822
			]
		},
		{
			"mesh":1,
			"name":"Cylinder.001",
			"rotation":[
				0.70710688829422,
				0,
				0,
				0.7071066498756409
			]
		},
		{
			"mesh":2,
			"name":"Curve",
			"rotation":[
				0.70710688829422,
				0,
				0,
				0.7071066498756409
			],
			"scale":[
				80.52308654785156,
				58.25650405883789,
				80.52308654785156
			],
			"translation":[
				-0.019798876717686653,
				-0.03546559438109398,
				0.08544835448265076
			]
		}
	],
	"materials":[
		{
			"alphaMode":"BLEND",
			"doubleSided":true,
			"extensions":{
				"KHR_materials_transmission":{
					"transmissionFactor":1
				},
				"KHR_materials_ior":{
					"ior":1.100000023841858
				}
			},
			"name":"Material.003",
			"pbrMetallicRoughness":{
				"baseColorFactor":[
					0.800000011920929,
					0.800000011920929,
					0.800000011920929,
					1
				],
				"metallicFactor":0,
				"roughnessFactor":0.10000000149011612
			}
		},
		{
			"doubleSided":true,
			"name":"Material Purple.002",
			"pbrMetallicRoughness":{
				"baseColorFactor":[
					0.0524798259139061,
					0,
					0.527114987373352,
					1
				],
				"metallicFactor":0,
				"roughnessFactor":0.5
			}
		},
		{
			"doubleSided":true,
			"name":"Material White.002",
			"pbrMetallicRoughness":{
				"baseColorFactor":[
					0.800000011920929,
					0.800000011920929,
					0.800000011920929,
					1
				],
				"metallicFactor":0,
				"roughnessFactor":0.5
			}
		}
	],
	"meshes":[
		{
			"name":"Cylinder.004",
			"primitives":[
				{
					"attributes":{
						"POSITION":0,
						"NORMAL":1
					},
					"indices":2,
					"material":0
				}
			]
		},
		{
			"name":"Cylinder.005",
			"primitives":[
				{
					"attributes":{
						"POSITION":3,
						"NORMAL":4
					},
					"indices":5,
					"material":1
				}
			]
		},
		{
			"name":"Curve.003",
			"primitives":[
				{
					"attributes":{
						"POSITION":6,
						"NORMAL":7
					},
					"indices":8,
					"material":2
				}
			]
		}
	],
	"accessors":[
		{
			"bufferView":0,
			"componentType":5126,
			"count":23887,
			"max":[
				0.37846851348876953,
				0.13568472862243652,
				0.37846851348876953
			],
			"min":[
				-0.37846851348876953,
				-0.13568472862243652,
				-0.37846851348876953
			],
			"type":"VEC3"
		},
		{
			"bufferView":1,
			"componentType":5126,
			"count":23887,
			"type":"VEC3"
		},
		{
			"bufferView":2,
			"componentType":5123,
			"count":116736,
			"type":"SCALAR"
		},
		{
			"bufferView":3,
			"componentType":5126,
			"count":21845,
			"max":[
				0.31334948539733887,
				0.06432228535413742,
				0.31334948539733887
			],
			"min":[
				-0.31334948539733887,
				-0.06432229280471802,
				-0.31334948539733887
			],
			"type":"VEC3"
		},
		{
			"bufferView":4,
			"componentType":5126,
			"count":21845,
			"type":"VEC3"
		},
		{
			"bufferView":5,
			"componentType":5123,
			"count":116736,
			"type":"SCALAR"
		},
		{
			"bufferView":6,
			"componentType":5126,
			"count":2503,
			"max":[
				0.00249559641815722,
				0,
				0.0017180792056024075
			],
			"min":[
				-0.002020051470026374,
				-0.0012364829890429974,
				-0.0027023055590689182
			],
			"type":"VEC3"
		},
		{
			"bufferView":7,
			"componentType":5126,
			"count":2503,
			"type":"VEC3"
		},
		{
			"bufferView":8,
			"componentType":5123,
			"count":3876,
			"type":"SCALAR"
		}
	],
	"bufferViews":[
		{
			"buffer":0,
			"byteLength":286644,
			"byteOffset":0,
			"target":34962
		},
		{
			"buffer":0,
			"byteLength":286644,
			"byteOffset":286644,
			"target":34962
		},
		{
			"buffer":0,
			"byteLength":233472,
			"byteOffset":573288,
			"target":34963
		},
		{
			"buffer":0,
			"byteLength":262140,
			"byteOffset":806760,
			"target":34962
		},
		{
			"buffer":0,
			"byteLength":262140,
			"byteOffset":1068900,
			"target":34962
		},
		{
			"buffer":0,
			"byteLength":233472,
			"byteOffset":1331040,
			"target":34963
		},
		{
			"buffer":0,
			"byteLength":30036,
			"byteOffset":1564512,
			"target":34962
		},
		{
			"buffer":0,
			"byteLength":30036,
			"byteOffset":1594548,
			"target":34962
		},
		{
			"buffer":0,
			"byteLength":7752,
			"byteOffset":1624584,
			"target":34963
		}
	],
	"buffers":[
		{
			"byteLength":1632336,
			"uri":"data:application/octet-stream;base64,"
		}
	]
}
