{
	"asset":{
		"generator":"Khronos glTF Blender I/O v3.6.27",
		"version":"2.0"
	},
	"scene":0,
	"scenes":[
		{
			"name":"Scene",
			"nodes":[
				0,
				1,
				2,
				3,
				4
			]
		}
	],
	"nodes":[
		{
			"mesh":0,
			"name":"Cylinder",
			"rotation":[
				0.70710688829422,
				0,
				0,
				0.7071066498756409
			],
			"scale":[
				0.9003743529319763,
				0.6080118417739868,
				0.9003744721412659
			],
			"translation":[
				0,
				0,
				0.01730874925851822
			]
		},
		{
			"mesh":1,
			"name":"Cylinder.001",
			"rotation":[
				0.70710688829422,
				0,
				0,
				0.7071066498756409
			]
		},
		{
			"mesh":2,
			"name":"Curve",
			"rotation":[
				0.70710688829422,
				0,
				0,
				0.7071066498756409
			],
			"scale":[
				80.52308654785156,
				58.256507873535156,
				80.5230941772461
			],
			"translation":[
				-0.019798876717686653,
				-0.03546559438109398,
				0.08544835448265076
			]
		},
		{
			"name":"Empty",
			"translation":[
				-0.20607750117778778,
				15.618734359741211,
				0.1252729296684265
			]
		},
		{
			"name":"Empty.001",
			"translation":[
				-0.20607750117778778,
				15.618734359741211,
				0.1252729296684265
			]
		}
	],
	"materials":[
		{
			"alphaMode":"BLEND",
			"name":"Glass",
			"normalTexture":{
				"index":0
			},
			"occlusionTexture":{
				"index":1
			},
			"pbrMetallicRoughness":{
				"baseColorTexture":{
					"index":2
				},
				"metallicRoughnessTexture":{
					"index":1
				}
			}
		},
		{
			"doubleSided":true,
			"name":"Material Purple.001",
			"pbrMetallicRoughness":{
				"baseColorFactor":[
					0.0524798259139061,
					0,
					0.527114987373352,
					1
				],
				"metallicFactor":0,
				"roughnessFactor":0.5
			}
		},
		{
			"doubleSided":true,
			"name":"Material White.001",
			"pbrMetallicRoughness":{
				"baseColorFactor":[
					0.800000011920929,
					0.800000011920929,
					0.800000011920929,
					1
				],
				"metallicFactor":0,
				"roughnessFactor":0.5
			}
		}
	],
	"meshes":[
		{
			"name":"Cylinder.002",
			"primitives":[
				{
					"attributes":{
						"POSITION":0,
						"NORMAL":1
					},
					"indices":2,
					"material":0
				}
			]
		},
		{
			"name":"Cylinder.003",
			"primitives":[
				{
					"attributes":{
						"POSITION":3,
						"NORMAL":4
					},
					"indices":5,
					"material":1
				}
			]
		},
		{
			"name":"Curve.001",
			"primitives":[
				{
					"attributes":{
						"POSITION":6,
						"NORMAL":7
					},
					"indices":8,
					"material":2
				}
			]
		}
	],
	"textures":[
		{
			"sampler":0,
			"source":0
		},
		{
			"sampler":0,
			"source":1
		},
		{
			"sampler":0,
			"source":2
		}
	],
	"images":[
		{
			"bufferView":3,
			"mimeType":"image/png",
			"name":"Image_2"
		},
		{
			"bufferView":4,
			"mimeType":"image/png",
			"name":"Image_1"
		},
		{
			"bufferView":5,
			"mimeType":"image/png",
			"name":"Image_0"
		}
	],
	"accessors":[
		{
			"bufferView":0,
			"componentType":5126,
			"count":23073,
			"max":[
				0.37846851348876953,
				0.13568472862243652,
				0.37846851348876953
			],
			"min":[
				-0.37846851348876953,
				-0.13568472862243652,
				-0.37846851348876953
			],
			"type":"VEC3"
		},
		{
			"bufferView":1,
			"componentType":5126,
			"count":23073,
			"type":"VEC3"
		},
		{
			"bufferView":2,
			"componentType":5123,
			"count":116736,
			"type":"SCALAR"
		},
		{
			"bufferView":6,
			"componentType":5126,
			"count":21455,
			"max":[
				0.31334948539733887,
				0.06432228535413742,
				0.31334948539733887
			],
			"min":[
				-0.31334948539733887,
				-0.06432229280471802,
				-0.31334948539733887
			],
			"type":"VEC3"
		},
		{
			"bufferView":7,
			"componentType":5126,
			"count":21455,
			"type":"VEC3"
		},
		{
			"bufferView":8,
			"componentType":5123,
			"count":116736,
			"type":"SCALAR"
		},
		{
			"bufferView":9,
			"componentType":5126,
			"count":2503,
			"max":[
				0.00249559641815722,
				0,
				0.0017180792056024075
			],
			"min":[
				-0.002020051470026374,
				-0.0012364829890429974,
				-0.0027023055590689182
			],
			"type":"VEC3"
		},
		{
			"bufferView":10,
			"componentType":5126,
			"count":2503,
			"type":"VEC3"
		},
		{
			"bufferView":11,
			"componentType":5123,
			"count":3876,
			"type":"SCALAR"
		}
	],
	"bufferViews":[
		{
			"buffer":0,
			"byteLength":276876,
			"byteOffset":0,
			"target":34962
		},
		{
			"buffer":0,
			"byteLength":276876,
			"byteOffset":276876,
			"target":34962
		},
		{
			"buffer":0,
			"byteLength":233472,
			"byteOffset":553752,
			"target":34963
		},
		{
			"buffer":0,
			"byteLength":569215,
			"byteOffset":787224
		},
		{
			"buffer":0,
			"byteLength":5357,
			"byteOffset":1356440
		},
		{
			"buffer":0,
			"byteLength":6528,
			"byteOffset":1361800
		},
		{
			"buffer":0,
			"byteLength":257460,
			"byteOffset":1368328,
			"target":34962
		},
		{
			"buffer":0,
			"byteLength":257460,
			"byteOffset":1625788,
			"target":34962
		},
		{
			"buffer":0,
			"byteLength":233472,
			"byteOffset":1883248,
			"target":34963
		},
		{
			"buffer":0,
			"byteLength":30036,
			"byteOffset":2116720,
			"target":34962
		},
		{
			"buffer":0,
			"byteLength":30036,
			"byteOffset":2146756,
			"target":34962
		},
		{
			"buffer":0,
			"byteLength":7752,
			"byteOffset":2176792,
			"target":34963
		}
	],
	"samplers":[
		{
			"magFilter":9729,
			"minFilter":9987
		}
	],
	"buffers":[
		{
			"byteLength":2184544,
			"uri":"data:application/octet-stream;base64,"
		}
	]
}
