{
	"asset":{
		"generator":"Khronos glTF Blender I/O v3.6.27",
		"version":"2.0"
	},
	"scene":0,
	"scenes":[
		{
			"name":"Scene",
			"nodes":[
				0
			]
		}
	],
	"nodes":[
		{
			"mesh":0,
			"name":"High-end_headset_01_Cube.027",
			"rotation":[
				0,
				-0.7071066498756409,
				0.70710688829422,
				3.090861255827804e-08
			],
			"scale":[
				0.014999999664723873,
				0.014999999664723873,
				0.014999999664723873
			],
			"translation":[
				0.0012450367212295532,
				0,
				-0.04807005822658539
			]
		}
	],
	"animations":[
		{
			"channels":[
				{
					"sampler":0,
					"target":{
						"node":0,
						"path":"translation"
					}
				},
				{
					"sampler":1,
					"target":{
						"node":0,
						"path":"rotation"
					}
				}
			],
			"name":"High-end_headset_01_Cube.027Action",
			"samplers":[
				{
					"input":9,
					"interpolation":"LINEAR",
					"output":10
				},
				{
					"input":9,
					"interpolation":"LINEAR",
					"output":11
				}
			]
		}
	],
	"materials":[
		{
			"doubleSided":true,
			"name":"455A64",
			"pbrMetallicRoughness":{
				"baseColorFactor":[
					0.2705880105495453,
					0.35294100642204285,
					0.3921569883823395,
					1
				],
				"metallicFactor":0,
				"roughnessFactor":0.5
			}
		},
		{
			"doubleSided":true,
			"name":"1A1A1A",
			"pbrMetallicRoughness":{
				"baseColorFactor":[
					0.10196100175380707,
					0.10196100175380707,
					0.10196100175380707,
					1
				],
				"metallicFactor":0,
				"roughnessFactor":0.5
			}
		},
		{
			"doubleSided":true,
			"name":"039BE5",
			"pbrMetallicRoughness":{
				"baseColorFactor":[
					0.01176500041037798,
					0.6078429818153381,
					0.8980389833450317,
					1
				],
				"metallicFactor":0,
				"roughnessFactor":0.5
			}
		}
	],
	"meshes":[
		{
			"name":"High-end_headset_01_Cube.027",
			"primitives":[
				{
					"attributes":{
						"POSITION":0,
						"NORMAL":1
					},
					"indices":2,
					"material":0
				},
				{
					"attributes":{
						"POSITION":3,
						"NORMAL":4
					},
					"indices":5,
					"material":1
				},
				{
					"attributes":{
						"POSITION":6,
						"NORMAL":7
					},
					"indices":8,
					"material":2
				}
			]
		}
	],
	"accessors":[
		{
			"bufferView":0,
			"componentType":5126,
			"count":274,
			"max":[
				8.175168991088867,
				0.673799991607666,
				-1.0468289852142334
			],
			"min":[
				-8.175168991088867,
				-2.516587972640991,
				-4.934267044067383
			],
			"type":"VEC3"
		},
		{
			"bufferView":1,
			"componentType":5126,
			"count":274,
			"type":"VEC3"
		},
		{
			"bufferView":2,
			"componentType":5123,
			"count":432,
			"type":"SCALAR"
		},
		{
			"bufferView":3,
			"componentType":5126,
			"count":672,
			"max":[
				8.119186401367188,
				5.237863063812256,
				-0.08889699727296829
			],
			"min":[
				-8.119186401367188,
				-17.087486267089844,
				-9.969425201416016
			],
			"type":"VEC3"
		},
		{
			"bufferView":4,
			"componentType":5126,
			"count":672,
			"type":"VEC3"
		},
		{
			"bufferView":5,
			"componentType":5123,
			"count":1536,
			"type":"SCALAR"
		},
		{
			"bufferView":6,
			"componentType":5126,
			"count":176,
			"max":[
				4.679182052612305,
				-2.3052899837493896,
				-1.5028560161590576
			],
			"min":[
				-4.679182052612305,
				-2.5328919887542725,
				-4.478239059448242
			],
			"type":"VEC3"
		},
		{
			"bufferView":7,
			"componentType":5126,
			"count":176,
			"type":"VEC3"
		},
		{
			"bufferView":8,
			"componentType":5123,
			"count":240,
			"type":"SCALAR"
		},
		{
			"bufferView":9,
			"componentType":5126,
			"count":241,
			"max":[
				10
			],
			"min":[
				0
			],
			"type":"SCALAR"
		},
		{
			"bufferView":10,
			"componentType":5126,
			"count":241,
			"type":"VEC3"
		},
		{
			"bufferView":11,
			"componentType":5126,
			"count":241,
			"type":"VEC4"
		}
	],
	"bufferViews":[
		{
			"buffer":0,
			"byteLength":3288,
			"byteOffset":0,
			"target":34962
		},
		{
			"buffer":0,
			"byteLength":3288,
			"byteOffset":3288,
			"target":34962
		},
		{
			"buffer":0,
			"byteLength":864,
			"byteOffset":6576,
			"target":34963
		},
		{
			"buffer":0,
			"byteLength":8064,
			"byteOffset":7440,
			"target":34962
		},
		{
			"buffer":0,
			"byteLength":8064,
			"byteOffset":15504,
			"target":34962
		},
		{
			"buffer":0,
			"byteLength":3072,
			"byteOffset":23568,
			"target":34963
		},
		{
			"buffer":0,
			"byteLength":2112,
			"byteOffset":26640,
			"target":34962
		},
		{
			"buffer":0,
			"byteLength":2112,
			"byteOffset":28752,
			"target":34962
		},
		{
			"buffer":0,
			"byteLength":480,
			"byteOffset":30864,
			"target":34963
		},
		{
			"buffer":0,
			"byteLength":964,
			"byteOffset":31344
		},
		{
			"buffer":0,
			"byteLength":2892,
			"byteOffset":32308
		},
		{
			"buffer":0,
			"byteLength":3856,
			"byteOffset":35200
		}
	],
	"buffers":[
		{
			"byteLength":39056,
			"uri":"data:application/octet-stream;base64,"
		}
	]
}
