{
	"asset":{
		"generator":"Khronos glTF Blender I/O v3.6.27",
		"version":"2.0"
	},
	"extensionsUsed":[
		"KHR_materials_transmission",
		"KHR_materials_ior"
	],
	"scene":0,
	"scenes":[
		{
			"name":"Scene",
			"nodes":[
				0,
				1,
				2,
				3,
				4
			]
		}
	],
	"nodes":[
		{
			"mesh":0,
			"name":"Cylinder",
			"rotation":[
				0.70710688829422,
				0,
				0,
				0.7071066498756409
			],
			"scale":[
				0.9003743529319763,
				0.6080118417739868,
				0.9003744721412659
			],
			"translation":[
				0,
				0,
				0.01730874925851822
			]
		},
		{
			"mesh":1,
			"name":"Cylinder.001",
			"rotation":[
				0.70710688829422,
				0,
				0,
				0.7071066498756409
			]
		},
		{
			"mesh":2,
			"name":"Curve.001",
			"rotation":[
				0.70710688829422,
				0,
				0,
				0.7071066498756409
			],
			"scale":[
				53.46659469604492,
				53.46660232543945,
				53.46660232543945
			],
			"translation":[
				0.0061380136758089066,
				0.027896106243133545,
				0.08116409927606583
			]
		},
		{
			"name":"Empty",
			"translation":[
				-0.20607750117778778,
				15.618734359741211,
				0.1252729296684265
			]
		},
		{
			"name":"Empty.001",
			"translation":[
				-0.20607750117778778,
				15.618734359741211,
				0.1252729296684265
			]
		}
	],
	"materials":[
		{
			"doubleSided":true,
			"extensions":{
				"KHR_materials_transmission":{
					"transmissionFactor":1
				},
				"KHR_materials_ior":{
					"ior":1.100000023841858
				}
			},
			"name":"Material.001",
			"pbrMetallicRoughness":{
				"baseColorFactor":[
					0.800000011920929,
					0.800000011920929,
					0.800000011920929,
					1
				],
				"metallicFactor":0,
				"roughnessFactor":0.10000000149011612
			}
		},
		{
			"doubleSided":true,
			"name":"Material Purple",
			"pbrMetallicRoughness":{
				"baseColorFactor":[
					0,
					0.15155473351478577,
					0.6444796323776245,
					1
				],
				"metallicFactor":0,
				"roughnessFactor":0.5
			}
		},
		{
			"doubleSided":true,
			"name":"Material White",
			"pbrMetallicRoughness":{
				"baseColorFactor":[
					0.800000011920929,
					0.800000011920929,
					0.800000011920929,
					1
				],
				"metallicFactor":0,
				"roughnessFactor":0.5
			}
		}
	],
	"meshes":[
		{
			"name":"Cylinder",
			"primitives":[
				{
					"attributes":{
						"POSITION":0,
						"NORMAL":1
					},
					"indices":2,
					"material":0
				}
			]
		},
		{
			"name":"Cylinder.001",
			"primitives":[
				{
					"attributes":{
						"POSITION":3,
						"NORMAL":4
					},
					"indices":5,
					"material":1
				}
			]
		},
		{
			"name":"Curve.002",
			"primitives":[
				{
					"attributes":{
						"POSITION":6,
						"NORMAL":7
					},
					"indices":8,
					"material":2
				}
			]
		}
	],
	"accessors":[
		{
			"bufferView":0,
			"componentType":5126,
			"count":23073,
			"max":[
				0.37846851348876953,
				0.13568472862243652,
				0.37846851348876953
			],
			"min":[
				-0.37846851348876953,
				-0.13568472862243652,
				-0.37846851348876953
			],
			"type":"VEC3"
		},
		{
			"bufferView":1,
			"componentType":5126,
			"count":23073,
			"type":"VEC3"
		},
		{
			"bufferView":2,
			"componentType":5123,
			"count":116736,
			"type":"SCALAR"
		},
		{
			"bufferView":3,
			"componentType":5126,
			"count":21455,
			"max":[
				0.31334948539733887,
				0.06432228535413742,
				0.31334948539733887
			],
			"min":[
				-0.31334948539733887,
				-0.06432229280471802,
				-0.31334948539733887
			],
			"type":"VEC3"
		},
		{
			"bufferView":4,
			"componentType":5126,
			"count":21455,
			"type":"VEC3"
		},
		{
			"bufferView":5,
			"componentType":5123,
			"count":116736,
			"type":"SCALAR"
		},
		{
			"bufferView":6,
			"componentType":5126,
			"count":1258,
			"max":[
				0.0022834318224340677,
				0,
				0.0022692158818244934
			],
			"min":[
				-0.002232216065749526,
				-0.0009874757379293442,
				-0.002245478332042694
			],
			"type":"VEC3"
		},
		{
			"bufferView":7,
			"componentType":5126,
			"count":1258,
			"type":"VEC3"
		},
		{
			"bufferView":8,
			"componentType":5123,
			"count":1956,
			"type":"SCALAR"
		}
	],
	"bufferViews":[
		{
			"buffer":0,
			"byteLength":276876,
			"byteOffset":0,
			"target":34962
		},
		{
			"buffer":0,
			"byteLength":276876,
			"byteOffset":276876,
			"target":34962
		},
		{
			"buffer":0,
			"byteLength":233472,
			"byteOffset":553752,
			"target":34963
		},
		{
			"buffer":0,
			"byteLength":257460,
			"byteOffset":787224,
			"target":34962
		},
		{
			"buffer":0,
			"byteLength":257460,
			"byteOffset":1044684,
			"target":34962
		},
		{
			"buffer":0,
			"byteLength":233472,
			"byteOffset":1302144,
			"target":34963
		},
		{
			"buffer":0,
			"byteLength":15096,
			"byteOffset":1535616,
			"target":34962
		},
		{
			"buffer":0,
			"byteLength":15096,
			"byteOffset":1550712,
			"target":34962
		},
		{
			"buffer":0,
			"byteLength":3912,
			"byteOffset":1565808,
			"target":34963
		}
	],
	"buffers":[
		{
			"byteLength":1569720,
			"uri":"data:application/octet-stream;base64,"
		}
	]
}
