{
	"asset":{
		"generator":"Khronos glTF Blender I/O v3.6.27",
		"version":"2.0"
	},
	"scene":0,
	"scenes":[
		{
			"name":"Scene",
			"nodes":[
				0,
				1
			]
		}
	],
	"nodes":[
		{
			"mesh":0,
			"name":"Cylinder.001",
			"rotation":[
				0.70710688829422,
				0,
				0,
				0.7071066498756409
			]
		},
		{
			"mesh":1,
			"name":"Curve.001",
			"rotation":[
				0.7071069478988647,
				0,
				0,
				0.7071066498756409
			],
			"scale":[
				53.46659469604492,
				53.46659851074219,
				53.46659851074219
			],
			"translation":[
				0.0061380136758089066,
				0.027896106243133545,
				0.08116409927606583
			]
		}
	],
	"materials":[
		{
			"doubleSided":true,
			"name":"Material Purple.002",
			"pbrMetallicRoughness":{
				"baseColorFactor":[
					0,
					0.15155473351478577,
					0.6444796323776245,
					1
				],
				"metallicFactor":0,
				"roughnessFactor":0.5
			}
		},
		{
			"doubleSided":true,
			"name":"Material White.002",
			"pbrMetallicRoughness":{
				"baseColorFactor":[
					0.800000011920929,
					0.800000011920929,
					0.800000011920929,
					1
				],
				"metallicFactor":0,
				"roughnessFactor":0.5
			}
		}
	],
	"meshes":[
		{
			"name":"Cylinder.005",
			"primitives":[
				{
					"attributes":{
						"POSITION":0,
						"NORMAL":1
					},
					"indices":2,
					"material":0
				}
			]
		},
		{
			"name":"Curve.003",
			"primitives":[
				{
					"attributes":{
						"POSITION":3,
						"NORMAL":4
					},
					"indices":5,
					"material":1
				}
			]
		}
	],
	"accessors":[
		{
			"bufferView":0,
			"componentType":5126,
			"count":21845,
			"max":[
				0.31334948539733887,
				0.06432228535413742,
				0.31334948539733887
			],
			"min":[
				-0.31334948539733887,
				-0.06432229280471802,
				-0.31334948539733887
			],
			"type":"VEC3"
		},
		{
			"bufferView":1,
			"componentType":5126,
			"count":21845,
			"type":"VEC3"
		},
		{
			"bufferView":2,
			"componentType":5123,
			"count":116736,
			"type":"SCALAR"
		},
		{
			"bufferView":3,
			"componentType":5126,
			"count":1258,
			"max":[
				0.0022834318224340677,
				0,
				0.0022692158818244934
			],
			"min":[
				-0.002232216065749526,
				-0.0009874757379293442,
				-0.002245478332042694
			],
			"type":"VEC3"
		},
		{
			"bufferView":4,
			"componentType":5126,
			"count":1258,
			"type":"VEC3"
		},
		{
			"bufferView":5,
			"componentType":5123,
			"count":1956,
			"type":"SCALAR"
		}
	],
	"bufferViews":[
		{
			"buffer":0,
			"byteLength":262140,
			"byteOffset":0,
			"target":34962
		},
		{
			"buffer":0,
			"byteLength":262140,
			"byteOffset":262140,
			"target":34962
		},
		{
			"buffer":0,
			"byteLength":233472,
			"byteOffset":524280,
			"target":34963
		},
		{
			"buffer":0,
			"byteLength":15096,
			"byteOffset":757752,
			"target":34962
		},
		{
			"buffer":0,
			"byteLength":15096,
			"byteOffset":772848,
			"target":34962
		},
		{
			"buffer":0,
			"byteLength":3912,
			"byteOffset":787944,
			"target":34963
		}
	],
	"buffers":[
		{
			"byteLength":791856,
			"uri":"data:application/octet-stream;base64,"
		}
	]
}
