{
	"asset":{
		"generator":"Khronos glTF Blender I/O v3.6.27",
		"version":"2.0"
	},
	"scene":0,
	"scenes":[
		{
			"name":"Scene",
			"nodes":[
				0,
				1
			]
		}
	],
	"nodes":[
		{
			"mesh":0,
			"name":"Dribbble.001",
			"rotation":[
				0.7068243622779846,
				0,
				0,
				0.7073891162872314
			],
			"scale":[
				28,
				24.526004791259766,
				27.99995231628418
			],
			"translation":[
				0.005464574322104454,
				0.010632685385644436,
				0.05787090212106705
			]
		},
		{
			"mesh":1,
			"name":"Cylinder.001",
			"rotation":[
				0.70710688829422,
				0,
				0,
				0.7071066498756409
			],
			"translation":[
				0,
				0,
				-0.008670410141348839
			]
		}
	],
	"materials":[
		{
			"doubleSided":true,
			"name":"Dribbble",
			"pbrMetallicRoughness":{
				"baseColorFactor":[
					0.8307700753211975,
					0.07227176427841187,
					0.2501583397388458,
					1
				],
				"metallicFactor":0,
				"roughnessFactor":0.5
			}
		},
		{
			"doubleSided":true,
			"name":"Material White.003",
			"pbrMetallicRoughness":{
				"baseColorFactor":[
					0.800000011920929,
					0.800000011920929,
					0.800000011920929,
					1
				],
				"metallicFactor":0,
				"roughnessFactor":0.5
			}
		},
		{
			"doubleSided":true,
			"name":"Material Purple.003",
			"pbrMetallicRoughness":{
				"baseColorFactor":[
					0.016978465020656586,
					0.6444796323776245,
					0.03238513320684433,
					1
				],
				"metallicFactor":0,
				"roughnessFactor":0.5
			}
		}
	],
	"meshes":[
		{
			"name":"XMLID_1111_.002",
			"primitives":[
				{
					"attributes":{
						"POSITION":0,
						"NORMAL":1,
						"TEXCOORD_0":2
					},
					"indices":3,
					"material":0
				},
				{
					"attributes":{
						"POSITION":4,
						"NORMAL":5,
						"TEXCOORD_0":6
					},
					"indices":7,
					"material":1
				}
			]
		},
		{
			"name":"Cylinder.007",
			"primitives":[
				{
					"attributes":{
						"POSITION":8,
						"NORMAL":9
					},
					"indices":10,
					"material":2
				}
			]
		}
	],
	"accessors":[
		{
			"bufferView":0,
			"componentType":5126,
			"count":192,
			"max":[
				0.009879211895167828,
				-0.00044560193782672286,
				0.010362726636230946
			],
			"min":[
				-0.010362173430621624,
				-0.0014456019271165133,
				-0.009874382056295872
			],
			"type":"VEC3"
		},
		{
			"bufferView":1,
			"componentType":5126,
			"count":192,
			"type":"VEC3"
		},
		{
			"bufferView":2,
			"componentType":5126,
			"count":192,
			"type":"VEC2"
		},
		{
			"bufferView":3,
			"componentType":5123,
			"count":564,
			"type":"SCALAR"
		},
		{
			"bufferView":4,
			"componentType":5126,
			"count":1288,
			"max":[
				0.006210252642631531,
				0.0004999994998797774,
				0.006691720336675644
			],
			"min":[
				-0.006693214178085327,
				-0.000500000431202352,
				-0.006209012120962143
			],
			"type":"VEC3"
		},
		{
			"bufferView":5,
			"componentType":5126,
			"count":1288,
			"type":"VEC3"
		},
		{
			"bufferView":6,
			"componentType":5126,
			"count":1288,
			"type":"VEC2"
		},
		{
			"bufferView":7,
			"componentType":5123,
			"count":3660,
			"type":"SCALAR"
		},
		{
			"bufferView":8,
			"componentType":5126,
			"count":21845,
			"max":[
				0.31334948539733887,
				0.06432228535413742,
				0.31334948539733887
			],
			"min":[
				-0.31334948539733887,
				-0.06432229280471802,
				-0.31334948539733887
			],
			"type":"VEC3"
		},
		{
			"bufferView":9,
			"componentType":5126,
			"count":21845,
			"type":"VEC3"
		},
		{
			"bufferView":10,
			"componentType":5123,
			"count":116736,
			"type":"SCALAR"
		}
	],
	"bufferViews":[
		{
			"buffer":0,
			"byteLength":2304,
			"byteOffset":0,
			"target":34962
		},
		{
			"buffer":0,
			"byteLength":2304,
			"byteOffset":2304,
			"target":34962
		},
		{
			"buffer":0,
			"byteLength":1536,
			"byteOffset":4608,
			"target":34962
		},
		{
			"buffer":0,
			"byteLength":1128,
			"byteOffset":6144,
			"target":34963
		},
		{
			"buffer":0,
			"byteLength":15456,
			"byteOffset":7272,
			"target":34962
		},
		{
			"buffer":0,
			"byteLength":15456,
			"byteOffset":22728,
			"target":34962
		},
		{
			"buffer":0,
			"byteLength":10304,
			"byteOffset":38184,
			"target":34962
		},
		{
			"buffer":0,
			"byteLength":7320,
			"byteOffset":48488,
			"target":34963
		},
		{
			"buffer":0,
			"byteLength":262140,
			"byteOffset":55808,
			"target":34962
		},
		{
			"buffer":0,
			"byteLength":262140,
			"byteOffset":317948,
			"target":34962
		},
		{
			"buffer":0,
			"byteLength":233472,
			"byteOffset":580088,
			"target":34963
		}
	],
	"buffers":[
		{
			"byteLength":813560,
			"uri":"data:application/octet-stream;base64,"
		}
	]
}
